<mxfile host="app.diagrams.net" agent="Mozilla/5.0 (Windows NT 10.0; Win64; x64) AppleWebKit/537.36 (KHTML, like Gecko) Chrome/131.0.0.0 Safari/537.36 Edg/131.0.0.0" version="24.8.6">
  <diagram name="Page-1" id="2huzGvKcGrXNHHRLyzxT">
    <mxGraphModel dx="1042" dy="565" grid="1" gridSize="10" guides="1" tooltips="1" connect="1" arrows="1" fold="1" page="1" pageScale="1" pageWidth="850" pageHeight="1100" math="0" shadow="0">
      <root>
        <mxCell id="0" />
        <mxCell id="1" parent="0" />
        <mxCell id="hTe4sNV3FlAGqPMzw8KE-8" value="" style="edgeStyle=orthogonalEdgeStyle;rounded=0;orthogonalLoop=1;jettySize=auto;html=1;" edge="1" parent="1" source="hTe4sNV3FlAGqPMzw8KE-1" target="hTe4sNV3FlAGqPMzw8KE-2">
          <mxGeometry relative="1" as="geometry" />
        </mxCell>
        <mxCell id="hTe4sNV3FlAGqPMzw8KE-1" value="Start" style="ellipse;whiteSpace=wrap;html=1;" vertex="1" parent="1">
          <mxGeometry x="340" width="120" height="80" as="geometry" />
        </mxCell>
        <mxCell id="hTe4sNV3FlAGqPMzw8KE-9" style="edgeStyle=orthogonalEdgeStyle;rounded=0;orthogonalLoop=1;jettySize=auto;html=1;exitX=0.5;exitY=1;exitDx=0;exitDy=0;entryX=0.5;entryY=0;entryDx=0;entryDy=0;" edge="1" parent="1" source="hTe4sNV3FlAGqPMzw8KE-2" target="hTe4sNV3FlAGqPMzw8KE-3">
          <mxGeometry relative="1" as="geometry">
            <Array as="points">
              <mxPoint x="400" y="240" />
              <mxPoint x="80" y="240" />
            </Array>
          </mxGeometry>
        </mxCell>
        <mxCell id="hTe4sNV3FlAGqPMzw8KE-10" style="edgeStyle=orthogonalEdgeStyle;rounded=0;orthogonalLoop=1;jettySize=auto;html=1;exitX=0.5;exitY=1;exitDx=0;exitDy=0;" edge="1" parent="1" source="hTe4sNV3FlAGqPMzw8KE-2" target="hTe4sNV3FlAGqPMzw8KE-4">
          <mxGeometry relative="1" as="geometry">
            <Array as="points">
              <mxPoint x="400" y="240" />
              <mxPoint x="600" y="240" />
            </Array>
          </mxGeometry>
        </mxCell>
        <mxCell id="hTe4sNV3FlAGqPMzw8KE-2" value="Nhập a,b" style="shape=parallelogram;perimeter=parallelogramPerimeter;whiteSpace=wrap;html=1;fixedSize=1;" vertex="1" parent="1">
          <mxGeometry x="340" y="120" width="120" height="60" as="geometry" />
        </mxCell>
        <mxCell id="hTe4sNV3FlAGqPMzw8KE-13" value="" style="edgeStyle=orthogonalEdgeStyle;rounded=0;orthogonalLoop=1;jettySize=auto;html=1;" edge="1" parent="1" source="hTe4sNV3FlAGqPMzw8KE-3" target="hTe4sNV3FlAGqPMzw8KE-5">
          <mxGeometry relative="1" as="geometry" />
        </mxCell>
        <mxCell id="hTe4sNV3FlAGqPMzw8KE-3" value="x = - b / a" style="shape=parallelogram;perimeter=parallelogramPerimeter;whiteSpace=wrap;html=1;fixedSize=1;" vertex="1" parent="1">
          <mxGeometry y="300" width="160" height="80" as="geometry" />
        </mxCell>
        <mxCell id="hTe4sNV3FlAGqPMzw8KE-11" style="edgeStyle=orthogonalEdgeStyle;rounded=0;orthogonalLoop=1;jettySize=auto;html=1;exitX=0.5;exitY=1;exitDx=0;exitDy=0;entryX=0.5;entryY=0;entryDx=0;entryDy=0;" edge="1" parent="1" source="hTe4sNV3FlAGqPMzw8KE-4" target="hTe4sNV3FlAGqPMzw8KE-6">
          <mxGeometry relative="1" as="geometry" />
        </mxCell>
        <mxCell id="hTe4sNV3FlAGqPMzw8KE-4" value="b = 0 ?" style="rhombus;whiteSpace=wrap;html=1;" vertex="1" parent="1">
          <mxGeometry x="500" y="280" width="200" height="80" as="geometry" />
        </mxCell>
        <mxCell id="hTe4sNV3FlAGqPMzw8KE-23" style="edgeStyle=orthogonalEdgeStyle;rounded=0;orthogonalLoop=1;jettySize=auto;html=1;exitX=0.5;exitY=1;exitDx=0;exitDy=0;" edge="1" parent="1" source="hTe4sNV3FlAGqPMzw8KE-5" target="hTe4sNV3FlAGqPMzw8KE-22">
          <mxGeometry relative="1" as="geometry" />
        </mxCell>
        <mxCell id="hTe4sNV3FlAGqPMzw8KE-5" value="PT có nghiệm x" style="shape=parallelogram;perimeter=parallelogramPerimeter;whiteSpace=wrap;html=1;fixedSize=1;" vertex="1" parent="1">
          <mxGeometry y="440" width="160" height="60" as="geometry" />
        </mxCell>
        <mxCell id="hTe4sNV3FlAGqPMzw8KE-24" style="edgeStyle=orthogonalEdgeStyle;rounded=0;orthogonalLoop=1;jettySize=auto;html=1;exitX=0.5;exitY=1;exitDx=0;exitDy=0;entryX=0.5;entryY=0;entryDx=0;entryDy=0;" edge="1" parent="1" source="hTe4sNV3FlAGqPMzw8KE-6" target="hTe4sNV3FlAGqPMzw8KE-22">
          <mxGeometry relative="1" as="geometry" />
        </mxCell>
        <mxCell id="hTe4sNV3FlAGqPMzw8KE-6" value="PT vô nghiệm&amp;nbsp;" style="shape=parallelogram;perimeter=parallelogramPerimeter;whiteSpace=wrap;html=1;fixedSize=1;" vertex="1" parent="1">
          <mxGeometry x="440" y="440" width="150" height="60" as="geometry" />
        </mxCell>
        <mxCell id="hTe4sNV3FlAGqPMzw8KE-25" style="edgeStyle=orthogonalEdgeStyle;rounded=0;orthogonalLoop=1;jettySize=auto;html=1;exitX=0.5;exitY=1;exitDx=0;exitDy=0;entryX=0.5;entryY=0;entryDx=0;entryDy=0;" edge="1" parent="1" source="hTe4sNV3FlAGqPMzw8KE-7" target="hTe4sNV3FlAGqPMzw8KE-22">
          <mxGeometry relative="1" as="geometry" />
        </mxCell>
        <mxCell id="hTe4sNV3FlAGqPMzw8KE-7" value="PT vô số nghiệm" style="shape=parallelogram;perimeter=parallelogramPerimeter;whiteSpace=wrap;html=1;fixedSize=1;" vertex="1" parent="1">
          <mxGeometry x="630" y="440" width="150" height="60" as="geometry" />
        </mxCell>
        <mxCell id="hTe4sNV3FlAGqPMzw8KE-12" style="edgeStyle=orthogonalEdgeStyle;rounded=0;orthogonalLoop=1;jettySize=auto;html=1;exitX=0.5;exitY=1;exitDx=0;exitDy=0;entryX=0.549;entryY=0.073;entryDx=0;entryDy=0;entryPerimeter=0;" edge="1" parent="1" source="hTe4sNV3FlAGqPMzw8KE-4" target="hTe4sNV3FlAGqPMzw8KE-7">
          <mxGeometry relative="1" as="geometry" />
        </mxCell>
        <mxCell id="hTe4sNV3FlAGqPMzw8KE-14" value="False" style="text;html=1;align=center;verticalAlign=middle;whiteSpace=wrap;rounded=0;" vertex="1" parent="1">
          <mxGeometry x="160" y="210" width="60" height="30" as="geometry" />
        </mxCell>
        <mxCell id="hTe4sNV3FlAGqPMzw8KE-15" value="True" style="text;html=1;align=center;verticalAlign=middle;whiteSpace=wrap;rounded=0;" vertex="1" parent="1">
          <mxGeometry x="540" y="210" width="60" height="30" as="geometry" />
        </mxCell>
        <mxCell id="hTe4sNV3FlAGqPMzw8KE-16" value="False" style="text;html=1;align=center;verticalAlign=middle;whiteSpace=wrap;rounded=0;" vertex="1" parent="1">
          <mxGeometry x="80" y="380" width="60" height="30" as="geometry" />
        </mxCell>
        <mxCell id="hTe4sNV3FlAGqPMzw8KE-17" value="True" style="text;html=1;align=center;verticalAlign=middle;whiteSpace=wrap;rounded=0;" vertex="1" parent="1">
          <mxGeometry x="675" y="370" width="60" height="30" as="geometry" />
        </mxCell>
        <mxCell id="hTe4sNV3FlAGqPMzw8KE-19" value="a = 0 ?" style="rhombus;whiteSpace=wrap;html=1;" vertex="1" parent="1">
          <mxGeometry x="320" y="200" width="160" height="80" as="geometry" />
        </mxCell>
        <mxCell id="hTe4sNV3FlAGqPMzw8KE-21" value="False" style="text;html=1;align=center;verticalAlign=middle;whiteSpace=wrap;rounded=0;" vertex="1" parent="1">
          <mxGeometry x="490" y="370" width="60" height="30" as="geometry" />
        </mxCell>
        <mxCell id="hTe4sNV3FlAGqPMzw8KE-22" value="End" style="ellipse;whiteSpace=wrap;html=1;" vertex="1" parent="1">
          <mxGeometry x="320" y="540" width="120" height="80" as="geometry" />
        </mxCell>
      </root>
    </mxGraphModel>
  </diagram>
</mxfile>
